<svg xmlns="http://www.w3.org/2000/svg" width="100" height="100" viewBox="0 0 4 4">
  <rect x="0" y="0" width="1" height="1" fill="rgb(235,240,249)" />
  <rect x="1" y="0" width="1" height="1" fill="rgb(232,236,247)" />
  <rect x="2" y="0" width="1" height="1" fill="rgb(227,232,245)" />
  <rect x="3" y="0" width="1" height="1" fill="rgb(234,239,249)" />
  
  <rect x="0" y="1" width="1" height="1" fill="rgb(204,214,233)" />
  <rect x="1" y="1" width="1" height="1" fill="rgb(209,219,236)" />
  <rect x="2" y="1" width="1" height="1" fill="rgb(201,214,232)" />
  <rect x="3" y="1" width="1" height="1" fill="rgb(205,213,233)" />
  
  <rect x="0" y="2" width="1" height="1" fill="rgb(240,230,255)" />
  <rect x="1" y="2" width="1" height="1" fill="rgb(185,200,223)" />
  <rect x="2" y="2" width="1" height="1" fill="rgb(197,208,227)" />
  <rect x="3" y="2" width="1" height="1" fill="rgb(202,216,238)" />
  
  <rect x="0" y="3" width="1" height="1" fill="rgb(221,233,247)" />
  <rect x="1" y="3" width="1" height="1" fill="rgb(171,199,228)" />
  <rect x="2" y="3" width="1" height="1" fill="rgb(173,192,218)" />
  <rect x="3" y="3" width="1" height="1" fill="rgb(230,237,247)" />
</svg>
